{"title":"Dead Man Down 2013 CAM READNFO XViD - JUSTiCE","uid":8451220,"size":1409741236,"categoryP":"video","categoryS":"movies","magnet":"?xt=urn:btih:b74f40ff7b24006dc8a629ad3adcc0db0be7ba32&amp;dn=Dead+Man+Down+2013+CAM+READNFO+XViD+-+JUSTiCE&amp;tr=udp%3A%2F%2Ftracker.openbittorrent.com%3A80&amp;tr=udp%3A%2F%2Fopen.demonii.com%3A1337&amp;tr=udp%3A%2F%2Ftracker.coppersurfer.tk%3A6969&amp;tr=udp%3A%2F%2Fexodus.desync.com%3A6969","seeders":0,"leechers":0,"uploader":"xxxlavalxxx","files":4,"time":1368007243,"description":" &lt;a href=&quot;http://www.imdb.com/title/tt2101341/&quot; rel=&quot;nofollow&quot; target=&quot;_NEW&quot;&gt;http://www.imdb.com/title/tt2101341/&lt;/a&gt;\n\n\n\nIn New York City, a crime lord's right-hand man is seduced by a woman seeking retribution. \n\n\n\nDirector:\n Niels Arden Oplev \n\nWriter:\n J.H. Wyman \n\nStars:\n Colin Farrell, Noomi Rapace, Terrence Howard \n\nGenres:\n  Action |  Crime |  Drama |  Thriller \n\nCountry:\n USA \n\n\n\n\nDead Man Down 2013 CAM READNFO XViD - JUSTiCE\n\n\n SOURCE : Dead.Man.Down.CAM.MD.READ.NFO.German.XviD-PsO\n         Hustle Hard Audio\n\n\n Video and audio both cleaned and given justice.\n Check sample and see.....\n\n Right from what i can tell the grp PSO have made a hybird from their own \n cam and the cam by hustlehard....to make a complete video.\n Bad news we don't have any complete audio lol ...so just syncd the hustlehard\n cam audio to the video and had to cut the parts with no audio.\n\n Audio as been cleaned and remastered in adobe but left the video as it was incomplete\n and not worth messing with.\n\n Video is shocking in parts with chair shots but other times really nice ....so you have \n been warned before you start moaning.\n Only did this because i was bored and only took 15mins to do so ...\n\n\n Video\n ID                               : 0\n Format                           : MPEG-4 Visual\n Format profile                   : Advanced Simple@L5\n Format settings, BVOP            : 2\n Format settings, QPel            : No\n Format settings, GMC             : No warppoints\n Format settings, Matrix          : Default (H.263)\n Codec ID                         : XVID\n Codec ID/Hint                    : XviD\n Duration                         : 1h 33mn\n Bit rate                         : 1 838 Kbps\n Width                            : 720 pixels\n Height                           : 304 pixels\n Display aspect ratio             : 2.35:1\n Frame rate                       : 25.000 fps\n Color space                      : YUV\n Chroma subsampling               : 4:2:0\n Bit depth                        : 8 bits\n Scan type                        : Progressive\n Compression mode                 : Lossy\n Bits/(Pixel*Frame)               : 0.336\n Stream size                      : 1.21 GiB (93%)\n Writing library                  : XviD 64\n\n Audio\n ID                               : 1\n Format                           : MPEG Audio\n Format version                   : Version 1\n Format profile                   : Layer 3\n Mode                             : Joint stereo\n Mode extension                   : MS Stereo\n Codec ID                         : 55\n Codec ID/Hint                    : MP3\n Duration                         : 1h 33mn\n Bit rate mode                    : Constant\n Bit rate                         : 128 Kbps\n Channel(s)                       : 2 channels\n Sampling rate                    : 48.0 KHz\n Compression mode                 : Lossy\n Stream size                      : 85.9 MiB (6%)\n Alignment                        : Split accross interleaves\n Interleave, duration             : 40 ms (1.00 video frame)\n Interleave, preload duration     : 500 ms\n\n\n\n\n    &lt;a href=&quot;\thttp://addpix.net/viewer.php?file=81376321742072824567.jpg&quot; rel=&quot;nofollow&quot; target=&quot;_NEW&quot;&gt;\thttp://addpix.net/viewer.php?file=81376321742072824567.jpg&lt;/a&gt;\n    &lt;a href=&quot;\thttp://addpix.net/viewer.php?file=95384342036008613561.jpg&quot; rel=&quot;nofollow&quot; target=&quot;_NEW&quot;&gt;\thttp://addpix.net/viewer.php?file=95384342036008613561.jpg&lt;/a&gt;\n    &lt;a href=&quot;\thttp://addpix.net/viewer.php?file=77265111866854156797.jpg&quot; rel=&quot;nofollow&quot; target=&quot;_NEW&quot;&gt;\thttp://addpix.net/viewer.php?file=77265111866854156797.jpg&lt;/a&gt;\n    &lt;a href=&quot;\thttp://addpix.net/viewer.php?file=58663627929345680845.jpg&quot; rel=&quot;nofollow&quot; target=&quot;_NEW&quot;&gt;\thttp://addpix.net/viewer.php?file=58663627929345680845.jpg&lt;/a&gt;\n    &lt;a href=&quot;\thttp://addpix.net/viewer.php?file=65411516834542838799.jpg&quot; rel=&quot;nofollow&quot; target=&quot;_NEW&quot;&gt;\thttp://addpix.net/viewer.php?file=65411516834542838799.jpg&lt;/a&gt;\n    &lt;a href=&quot;\thttp://addpix.net/viewer.php?file=32593517317512262568.jpg&quot; rel=&quot;nofollow&quot; target=&quot;_NEW&quot;&gt;\thttp://addpix.net/viewer.php?file=32593517317512262568.jpg&lt;/a&gt;","torrent":{"xt":"urn:btih:b74f40ff7b24006dc8a629ad3adcc0db0be7ba32","amp;dn":"Dead+Man+Down+2013+CAM+READNFO+XViD+-+JUSTiCE","amp;tr":["udp%3A%2F%2Ftracker.openbittorrent.com%3A80","udp%3A%2F%2Fopen.demonii.com%3A1337","udp%3A%2F%2Ftracker.coppersurfer.tk%3A6969","udp%3A%2F%2Fexodus.desync.com%3A6969"],"infoHash":"b74f40ff7b24006dc8a629ad3adcc0db0be7ba32","infoHashBuffer":{"type":"Buffer","data":[183,79,64,255,123,36,0,109,200,166,41,173,58,220,192,219,11,231,186,50]},"announce":[],"urlList":[]}}